<svg width="16" height="15" viewBox="0 0 16 15" fill="none" xmlns="http://www.w3.org/2000/svg">
<path fill-rule="evenodd" clip-rule="evenodd" d="M7.99997 5.39396L7.12725 3.83369C6.90276 3.43235 6.53658 2.91107 6.0125 2.51457C5.48207 2.11326 4.89731 1.91711 4.25 1.91711C2.43444 1.91711 1 3.35142 1 5.42671C1 6.50077 1.42655 7.44908 2.33409 8.52036C3.26688 9.62144 4.62175 10.7552 6.37061 12.2132L6.3729 12.2151C6.86723 12.6272 7.4209 13.0888 8.00001 13.5807C8.57957 13.0884 9.13363 12.6265 9.62851 12.2139L9.62975 12.2129C11.3784 10.7551 12.7332 9.62137 13.6659 8.52033C14.5734 7.44908 15 6.50078 15 5.42671C15 3.35142 13.5656 1.91711 11.75 1.91711C11.1027 1.91711 10.5179 2.11326 9.9875 2.51457C9.46343 2.91106 9.09724 3.43236 8.87274 3.83371L7.99997 5.39396ZM10.2701 12.981C13.7205 10.1045 16 8.20418 16 5.42671C16 2.85581 14.1729 0.917114 11.75 0.917114C10.8818 0.917114 10.0858 1.18626 9.38416 1.71709C9.08767 1.9414 8.83487 2.19276 8.62225 2.44412C8.3525 2.76304 8.14745 3.08194 8 3.34552C7.85256 3.08192 7.64751 2.76303 7.37775 2.44412C7.16514 2.19277 6.91233 1.9414 6.61584 1.71709C5.91422 1.18626 5.11822 0.917114 4.25 0.917114C1.82713 0.917114 0 2.85581 0 5.42671C0 8.20418 2.27947 10.1045 5.73028 12.9813C6.31617 13.4697 6.98067 14.0237 7.67088 14.6142C7.76188 14.6921 7.87875 14.735 8 14.735C8.12125 14.735 8.23813 14.6921 8.32913 14.6142C9.01956 14.0235 9.68375 13.4698 10.2701 12.981Z" fill="#3D3D3D"/>
</svg>
